# xmcd
#
# Track frame offsets:
#	150
#	15104
#	29751
#	43361
#	59924
#	73401
#	87841
#	97872
#	113258
#	124888
#	138425
#	152605
#	167549
#	182594
#
# Disc length: 2594 seconds
#
# Revision: 1
# Processed by: cddbd v1.5.2PL0 Copyright (c) Steve Scherf et al.
# Submitted via: audiograbber 1.83.01
#
DISCID=b80a200e
DTITLE=Verschiedene - Das Beste der Volksmusik
DYEAR=1900
DGENRE=
TTITLE0=Kastelruther Spatzen - Ich würd es wieder tun
TTITLE1=Stefanie Hertel - Tausendmal stärker
TTITLE2=Nockalm Quintett - Dort auf Wolke sieben
TTITLE3=Monika Martin - Hast Du heute schon gelächelt
TTITLE4=Alpentrio Tirol - Der Engel vom Marienhof
TTITLE5=Geschwister Hofmann - Mein Heimatland
TTITLE6=Hansi Hinterseer - Wenn ich auf hohen Bergen steh
TTITLE7=Angelika Wiedl - Schenk mir Blumen jeden Tag
TTITLE8=Original Naabtal Duo - Patrona Bavariae
TTITLE9=Bianca - Ich glaube an die Zukunft der Liebe
TTITLE10=Wolfgang Herrmann - Samma a schon grau
TTITLE11=Vincent and Fernando - Verführen erlaubt
TTITLE12=Judith and Mel - Alles wird gut
TTITLE13=Captain Cook - Ich denk so gern an Billy Vaughn
EXTD=
EXTT0=
EXTT1=
EXTT2=
EXTT3=
EXTT4=
EXTT5=
EXTT6=
EXTT7=
EXTT8=
EXTT9=
EXTT10=
EXTT11=
EXTT12=
EXTT13=
PLAYORDER=
